<?xml version="1.0" encoding="utf-8"?>
<!-- Generator: Adobe Illustrator 22.1.0, SVG Export Plug-In . SVG Version: 6.00 Build 0)  -->
<svg version="1.1" id="Слой_1" xmlns="http://www.w3.org/2000/svg" xmlns:xlink="http://www.w3.org/1999/xlink" x="0px" y="0px"
	 viewBox="0 0 60.6 13.9" style="enable-background:new 0 0 60.6 13.9;" xml:space="preserve">
<style type="text/css">
	.st0{opacity:0.3;fill:#FFFFFF;}
</style>
<path class="st0" d="M5.8,7.8H8l0.6,0.4h-3l-1.3,4.1C2.9,11.7,1.6,10.4,1,8.9C0.4,7.5,0.4,5.7,1,4.3c0.6-1.5,2-2.8,3.5-3.4
	c1.2-0.5,2.7-0.5,4-0.2c1.4,0.4,2.8,1.4,3.5,2.8c0.9,1.5,1.1,3.3,0.6,5c-0.3,1.1-1,2.2-2,2.9L9,8.7l2.3,1.3c0,0,0,0,0,0l-3-2.6
	l3.8,0.6c0,0,0,0,0,0l0,0L8.5,6.6l3.8-0.9c0,0,0,0,0,0L8.4,6l3-2.3c0,0,0,0,0,0L8,5.4l1.9-3.3c0,0,0,0,0,0L7.4,4.9l0.5-3.8
	c0,0,0,0,0,0L6.7,4.8L5.8,1c0,0,0,0,0,0L6,5l-2.3-3c0,0,0,0,0,0l1.8,3.4L2.1,3.5c0,0,0,0,0,0l3,2.4L1.2,5.5c0,0,0,0,0,0l3.7,1.1
	L1.3,7.7c0,0,0,0,0,0L5,7.3l-3,2.5c0,0,0,0,0,0l0,0l2.4-1.2L5,7.7h0.6L5.2,7.4L6.7,5L5.8,7.8L5.8,7.8L5.8,7.8L5.8,7.8z M5.8,7.8
	L5.8,7.8L5.8,7.8L5.8,7.8z"/>
<polygon class="st0" points="16.7,10.9 13.8,10.9 16.1,2.4 22.2,2.4 21.6,4.4 18.5,4.4 18.1,5.9 21.2,5.9 20.7,7.7 17.6,7.7 
	16.7,10.9 16.7,10.9 "/>
<path class="st0" d="M23.5,10.9h-2.9l1.7-6.2h2.9L23.5,10.9L23.5,10.9z M25.4,4.1h-2.9L23,2.4h2.9L25.4,4.1L25.4,4.1z"/>
<path class="st0" d="M31.1,10.9h-2.9l0.2-0.7c-0.6,0.5-1.2,0.8-2.1,0.8c-0.9,0-1.5-0.5-1.5-1.4c0-1.1,0.4-2.6,1-3.8
	c0.5-0.8,1.3-1.3,2.2-1.3c0.8,0,1.4,0.4,1.7,0.8l0.8-3h2.9L31.1,10.9L31.1,10.9L31.1,10.9z M28.9,6.5c-0.3,0-0.5,0.1-0.7,0.4
	c-0.2,0.5-0.4,1-0.4,1.5C27.8,8.8,28,9,28.3,9c0.2,0,0.4-0.1,0.5-0.1l0.6-2C29.3,6.6,29.1,6.5,28.9,6.5L28.9,6.5L28.9,6.5z
	 M28.9,6.5L28.9,6.5L28.9,6.5L28.9,6.5z"/>
<path class="st0" d="M39.3,8.2h-4c-0.1,0.3-0.2,0.6-0.2,0.8c0,0.1,0,0.4,0.4,0.4c0.4,0,0.6-0.2,0.8-0.8h2.9
	c-0.4,1.8-2.4,2.4-3.7,2.4c-1.7,0-3.1-0.2-3.1-1.9c0-0.9,0.5-2.4,1.1-3.2c0.7-1,2-1.3,3.2-1.3c1.8,0,3,0.4,3,1.9
	C39.7,6.9,39.5,7.7,39.3,8.2L39.3,8.2L39.3,8.2z M36.4,6.1c-0.4,0-0.6,0.2-0.8,0.9h1.2c0-0.1,0.1-0.3,0.1-0.4
	C36.9,6.2,36.7,6.1,36.4,6.1L36.4,6.1z"/>
<polygon class="st0" points="42.3,10.9 39.4,10.9 41.7,2.4 44.6,2.4 42.3,10.9 "/>
<path class="st0" d="M46.1,10.9h-2.9l1.7-6.2h2.9L46.1,10.9L46.1,10.9z M48,4.1h-2.9l0.5-1.7h2.9L48,4.1L48,4.1L48,4.1z"/>
<path class="st0" d="M52.7,4.7l0.1,1.4h-1.6l-0.7,2.3c-0.1,0.2-0.1,0.4-0.1,0.6c0,0.3,0.1,0.4,0.5,0.4h0.6l-0.4,1.5h-2.6
	c-0.9,0-1.2-0.4-1.2-1.1c0-0.3,0-0.5,0.1-0.9l1.6-5.6h2.9l-0.4,1.4h1.6l0,0H52.7z M53.3,4.7L53.3,4.7L53.3,4.7L53.3,4.7z"/>
<polygon class="st0" points="13.7,11.8 14.4,11.8 14,13.3 13.3,13.3 13.7,11.8 13.7,11.8 "/>
<polygon class="st0" points="16.3,11.8 17.3,11.8 17.6,12.8 17.6,12.8 17.9,11.8 18.5,11.8 18.1,13.3 17.1,13.3 16.8,12.3 
	16.8,12.3 16.4,13.3 15.8,13.3 16.3,11.8 16.3,11.8 "/>
<polygon class="st0" points="19.9,11.8 20.7,11.8 20.9,12.8 21.6,11.8 22.3,11.8 21.1,13.3 20.2,13.3 19.9,11.8 19.9,11.8 "/>
<polygon class="st0" points="23.7,11.8 25.4,11.8 25.3,12.1 24.3,12.1 24.2,12.4 25.1,12.4 25,12.7 24.1,12.7 24.1,13 25,13 
	24.9,13.3 23.3,13.3 23.7,11.8 23.7,11.8 "/>
<polygon class="st0" points="30.8,12.2 30.3,12.2 30.4,11.8 32.2,11.8 32.1,12.2 31.5,12.2 31.2,13.3 30.5,13.3 30.8,12.2 
	30.8,12.2 "/>
<polygon class="st0" points="33.7,11.8 34.8,11.8 34.9,12.8 34.9,12.8 35.5,11.8 36.6,11.8 36.2,13.3 35.5,13.3 35.9,12.2 
	35.9,12.2 35,13.3 34.3,13.3 34.2,12.2 34.2,12.2 33.9,13.3 33.3,13.3 33.7,11.8 33.7,11.8 "/>
<polygon class="st0" points="41.3,11.8 42.3,11.8 42.6,12.8 42.6,12.8 42.9,11.8 43.6,11.8 43.1,13.3 42.1,13.3 41.8,12.3 
	41.8,12.3 41.4,13.3 40.8,13.3 41.3,11.8 41.3,11.8 "/>
<polygon class="st0" points="45.3,12.2 44.7,12.2 44.8,11.8 46.7,11.8 46.6,12.2 46,12.2 45.7,13.3 44.9,13.3 45.3,12.2 45.3,12.2 
	"/>
<path class="st0" d="M27.6,12.3C27.6,12.3,27.6,12.2,27.6,12.3c0-0.1,0.1-0.2,0.3-0.2c0.1,0,0.2,0,0.3,0c0,0,0.1,0.1,0,0.1h0.6
	c0.1-0.3-0.1-0.4-0.8-0.4c-0.7,0-1.1,0.1-1.2,0.5c0,0.1,0,0.2,0,0.3c0.2,0.2,1,0.2,1,0.3c0,0,0,0,0,0.1c0,0.1-0.2,0.2-0.4,0.2
	c-0.1,0-0.2,0-0.3-0.1c0,0,0-0.1,0-0.1l-0.7,0c-0.1,0.2-0.1,0.5,0.8,0.5c0.8,0,1.1-0.2,1.2-0.5c0-0.1,0-0.2-0.1-0.3
	C28.5,12.4,27.7,12.4,27.6,12.3L27.6,12.3L27.6,12.3z M27.6,12.3L27.6,12.3L27.6,12.3L27.6,12.3z"/>
<polygon class="st0" points="38.1,11.8 39.8,11.8 39.7,12.1 38.7,12.1 38.6,12.4 39.5,12.4 39.4,12.7 38.6,12.7 38.5,13 39.4,13 
	39.3,13.3 37.7,13.3 38.1,11.8 38.1,11.8 "/>
<path class="st0" d="M57.2,4.7l-1.6,3.4l0-3.4h-2.9l0.6,6.2c-0.1,0.4-0.2,0.6-0.4,0.7c-0.2,0.1-0.8,0.1-1,0.1l0,0l-0.5,1.7l2,0
	c1.2,0,1.8-0.6,2.6-1.9l4.2-6.7L57.2,4.7L57.2,4.7L57.2,4.7z M57.2,4.7L57.2,4.7L57.2,4.7L57.2,4.7z"/>
<path class="st0" d="M48.6,12.3C48.6,12.3,48.6,12.2,48.6,12.3c0-0.1,0.1-0.2,0.3-0.2c0.1,0,0.2,0,0.3,0c0,0,0.1,0.1,0,0.1h0.6
	c0.1-0.3-0.1-0.4-0.8-0.4c-0.7,0-1.1,0.1-1.2,0.5c0,0.1,0,0.2,0,0.3c0.2,0.2,1,0.2,1,0.3c0,0,0,0,0,0.1c0,0.1-0.2,0.2-0.4,0.2
	c-0.1,0-0.2,0-0.3-0.1c0,0,0-0.1,0-0.1l-0.7,0c-0.1,0.2-0.1,0.5,0.8,0.5c0.8,0,1.1-0.2,1.2-0.5c0-0.1,0-0.2-0.1-0.3
	C49.4,12.4,48.7,12.4,48.6,12.3L48.6,12.3L48.6,12.3z M48.6,12.3L48.6,12.3L48.6,12.3L48.6,12.3z"/>
<path class="st0" d="M57.7,10.8c-0.3,0-0.5-0.2-0.5-0.5c0-0.3,0.2-0.5,0.5-0.5c0.3,0,0.5,0.2,0.5,0.5C58.2,10.5,57.9,10.8,57.7,10.8
	L57.7,10.8L57.7,10.8z M57.7,9.6c-0.4,0-0.6,0.3-0.6,0.6s0.3,0.6,0.6,0.6c0.4,0,0.6-0.3,0.6-0.6C58.3,9.9,58,9.6,57.7,9.6L57.7,9.6z
	"/>
<path class="st0" d="M57.5,10.2V10h0.1c0.1,0,0.2,0,0.2,0.1C57.8,10.2,57.7,10.2,57.5,10.2L57.5,10.2L57.5,10.2z M57.9,10.1
	c0-0.1-0.1-0.2-0.2-0.2h-0.2v0.7h0.1v-0.3h0.1l0.2,0.3h0.1l-0.2-0.3C57.8,10.3,57.9,10.2,57.9,10.1L57.9,10.1L57.9,10.1z M57.9,10.1
	L57.9,10.1L57.9,10.1L57.9,10.1z"/>
</svg>
