<?xml version="1.0" encoding="utf-8"?>
<!-- Generator: Adobe Illustrator 22.1.0, SVG Export Plug-In . SVG Version: 6.00 Build 0)  -->
<svg version="1.1" id="Слой_1" xmlns="http://www.w3.org/2000/svg" xmlns:xlink="http://www.w3.org/1999/xlink" x="0px" y="0px"
	 viewBox="0 0 165.9 34.8" style="enable-background:new 0 0 165.9 34.8;" xml:space="preserve">
<style type="text/css">
	.st0{opacity:0.3;fill-rule:evenodd;clip-rule:evenodd;fill:#FFFFFF;}
	.st1{fill-rule:evenodd;clip-rule:evenodd;fill:#FFFFFF;}
</style>
<g>
	<path class="st0" d="M75.8,19.5c-0.3,0-0.3-0.7-0.3-1.7c0.1-0.9,0.2-2.1,0.2-3.4c0-1.8-0.3-3.4-1.6-3.4c-1.6,0-3.4,4.4-3.8,5.2
		c-0.5,1-0.7,0.8-0.7-0.1l0-2.5c0-1.3-0.7-1.9-1.6-1.9c-1.9,0-3.1,1.7-3.5,1.8c-0.4,0.1-0.6-0.2-0.9-0.5l0.1,0.1
		c-0.3-0.6-0.7-0.9-1.5-1.2c-0.8-0.3-2.1-0.2-2.1,1.2c0,1.8,1.9,2.1,3.3,2.1v1.7c0,0.4-0.1,0.7-0.2,1c-0.4,1-1.4,1.7-2.2,1.7
		c-1.3,0-2-0.6-2.4-1.7c0.2,0.3-0.4-0.4-0.4-1.5c0-0.8-0.1-2.2,1.1-3.5c1-1.1,0.8-1.5-0.1-1.5c-3,0-5.8,3.6-6.4,3.6
		c-1.1,0-1.5-3.6-2.2-3.6c-0.9,0-1.5,3.2-3.3,6.5c-0.2,0.4-0.4,0.8-0.7,1.1c-0.8,1.2-1,0.6-1-0.2l0-0.9l0-4.8c0-2.2-2.3-2-3.2,0
		c-0.8,1.7-1.8,3.7-1.8,3.7c-0.6,1.1-0.9,0.9-0.9,0.2v-3.5c0-2.4-1.9-2.2-2.9-0.6l-3,5.1l-0.3,0.5c-0.6,0.9-0.8,0.9-0.9,0.2v-0.7
		v-4.1c0-0.7-0.1-2.3-1.4-2.3c-1.8,0-3.6,6.1-4.5,6.1v-5.4c1.5-1.4,2.9-4.5,2.9-7c0-1-0.3-2.5-1.5-2.5c-1.9,0-3.4,2.3-3.4,6.2
		l-0.1,4c-0.4,1.1-1.1,1.3-2.8,1.5c-0.5-1.8-1.5-2.3-2.5-2.3c-1,0-1.5,0.7-1.5,1.4c0,1.6,1.4,2.1,3,2.1c0.1,0.8,0.1,1.6-0.1,2.3
		c-0.3,1.1-1.3,1.9-2.2,1.9c-1.5-0.1-2.4-0.6-2.7-1.9c-0.7-1.9,0.3-4.7,1.7-5.9c-3,0.8-5.8,3.1-6.9,4.5c-0.8-2.9-1-8.4,0-14.2
		C7.1,2.3,3,7.1,3,12.1c0,4.9,2.7,8,3.4,8.3C7.2,20.8,7.3,21,7,21.7c-1.1,1.2-2.7,6.2-2.7,7.7c0,1.7,0.1,3.6,1.9,3.6
		c1.3,0,3.5-2.9,4.4-6.1c0.6-2.3,0.6-6.9,0.4-8.8c0-0.1,0-0.2,0-0.2c0.3-1.2,2.3-2.8,3.2-2.8c-0.2,1.1-0.2,2-0.1,2.8
		c0.5,2.2,1.7,3.8,3.9,3.8c2.6,0,4-1.6,4.3-3.8c0.1-0.4,0.1-0.7,0.1-1.1c0-0.4,0-0.8-0.1-1.2c0.9-0.1,1.6-0.4,2-0.6
		c0.5-0.5,0.7-0.4,0.7,0.7c0,0,0,1.1,0,2.2c0,1,0,1.9,0,2.3c0,0.7,0,1.5,1,1.5c0.7,0,1.6-2,2.4-3.8c0.5-1.2,1-2.4,1.2-2.9
		c0.6-1.1,1.1-1,1.1-0.1c0,0,0,1.5,0,3c0,0.8,0,1.5,0,2c0,1.2,0.6,1.8,1.5,1.8c1,0,2.1-1.9,3.1-3.8c0.6-1.1,1.2-2.3,1.6-3
		c0.6-1,0.8-1,0.8,0c0,0,0,1.6,0,3c0,0.9,0,1.7,0,2c0,0.8,0.3,1.8,1,1.8c0.8,0,2-1.9,2.9-3.8h0c0-0.1,0.8-1.7,1.3-2.9
		c0.6-1.6,1-1.1,1,0.2l0,2.7l0,1.7c0,1.3,0.5,2.1,1.2,2.1c1.6,0,2.6-1.9,3.5-3.8c0.5-1,1-2,1.6-2.7c0.3,0.3,0.3,0.5,0.7,1.7
		c0.2,0.7-0.9,1.2-0.9,2.9c0,1.5,0.7,1.8,1.4,1.8c0.7,0,2.1-1,2.1-3.2c0-1.5-0.4-1.2-0.4-2.2c0.4-0.8,2.6-2.7,3.9-2.8
		c-0.7,0.7-1.2,2.3-1.2,3.4c0,0.4,0,0.8,0.1,1.1c0.5,2.2,2.2,3.8,4.4,3.8c2.4,0,3.8-1.9,4.1-3.7c0,0,0,0,0,0
		c0.2-1.1,0.3-2.1,0.1-3.5c0.5-0.1,1.2-0.6,1.5-0.9c0.9-0.9,1.2,0,1.2,1.4v3v1.8c0,1.4,0.3,2,1.1,2c0.9,0,1.4-1.6,2.4-3.8
		c0.4-1,0.9-2.1,1.6-3.2c0.5-1.1,0.8-1,0.8,0v3.3v0.6c0,2.3,0.6,3.2,1.6,3.2c1.1,0,2.2-1.2,2.9-2.7c0.2-0.5,0.3-0.8,0.4-1.1h-0.5
		C76.9,19,76.4,19.5,75.8,19.5L75.8,19.5z M62.7,14c-1.7,0-1.8-1-1.2-1C62.8,13,63.3,14,62.7,14L62.7,14z M9,28.4
		c-0.4,1.2-1.3,2.9-2.2,2.9c-1,0-1.2-2.3-1.2-2.3c0.1-2.6,1.6-6.7,2.8-8c0.7-0.6,0.9-0.4,0.9,0.5C9.5,22.8,9.5,26.8,9,28.4L9,28.4z
		 M8.6,18.6c-0.4,0.8-0.7,2.2-1.5,1.2C5.4,17.5,5,12.4,5,12.2c0-4.6,1.8-7.6,4.9-8.9C7.7,8.3,7.8,15.4,8.6,18.6L8.6,18.6z
		 M19.6,13.2c0.4-0.2,0.9,0.4,1.2,1.2C19,14.2,18.9,13.5,19.6,13.2L19.6,13.2z M28.2,3.6c0.7,0,1,4.1-1.2,7
		c-0.2-0.7-0.2-2.1-0.2-2.8C26.7,7.7,26.7,3.6,28.2,3.6L28.2,3.6z M51.3,20.3c-0.5,0-0.9-0.4,0-1.8C51.7,17.9,52,20.3,51.3,20.3
		L51.3,20.3z"/>
	<path class="st1" d="M26.8,7.9c0,0,0,0,0-0.2C26.8,7.3,26.8,7.5,26.8,7.9L26.8,7.9z"/>
	<path class="st0" d="M163.1,17.3c0,0.1-0.1,0.2-0.1,0.3c-0.5,1.1-1,1.7-1.7,1.7c-0.3,0-0.3-0.7-0.3-1.7c0.1-0.9,0.2-2.1,0.2-3.4
		c0-1.8-0.3-3.4-1.6-3.4c-1.6,0-3.4,4.4-3.8,5.2c-0.5,1-0.7,0.8-0.7-0.1l0-2.5c0-1.3-0.7-1.9-1.6-1.9c-1.9,0-3.1,1.7-3.5,1.8
		c-0.4,0.1-0.6-0.2-0.9-0.5l0.1,0.1c-0.3-0.6-0.7-0.9-1.5-1.2c-0.8-0.3-2.1-0.2-2.1,1.2c0,1.8,1.9,2.1,3.3,2.1v1.7
		c0,0.4-0.1,0.7-0.2,1c-0.4,1-1.4,1.7-2.2,1.7c-1.3,0-2-0.6-2.4-1.7c-0.2-0.4-0.3-0.6-0.4-1.3c-0.1-1.2-0.1-2.5,1.1-3.7
		c1-1.1,0.8-1.5-0.1-1.5c-3,0-5.8,3.6-6.4,3.6c-1.1,0-1.5-3.6-2.2-3.6c-0.9,0-1.4,3.2-3.3,6.5c-0.2,0.4-0.4,0.8-0.7,1.1
		c-0.8,1.2-1,0.6-1-0.2v-0.9l0-4.8c0-2.2-2.3-2-3.2,0c-0.8,1.7-1.8,3.7-1.8,3.7c-0.6,1.1-0.9,0.9-0.9,0.2V13c0-2.4-1.9-2.2-2.9-0.6
		l-3,5.1l-0.3,0.5c-0.6,0.9-0.8,0.9-0.9,0.2v-0.7v-4.1c0-0.7-0.1-2.3-1.4-2.3c-1.8,0-3.6,6.1-4.5,6.1v-5.4c1.5-1.4,2.9-4.5,2.9-7
		c0-1-0.3-2.5-1.5-2.5c-1.9,0-3.4,2.3-3.4,6.2l-0.1,4c-0.4,1.1-1.1,1.3-2.8,1.5c-0.5-1.8-1.5-2.3-2.5-2.3c-1,0-1.5,0.7-1.5,1.4
		c0,1.6,1.4,2.1,3,2.1c0.1,0.8,0.1,1.6-0.1,2.3c-0.3,1.1-1.3,1.9-2.2,1.9c-1.5-0.1-2.4-0.6-2.7-1.9c-0.5-1.9,0.3-4.7,1.7-5.9
		c-3,0.8-5.8,3.1-6.9,4.5c-0.4-2.9-0.3-7.8,0.5-13.9c-3.7,0-8,4.6-8,9.5c0,2,0.6,3.7,1,4.7c0.1,0.3,0.5,1-0.1,1.2
		c-0.4-0.2-2.3,0-2.9,0.3c0.1-1.4-0.2-3.2-0.9-4.4c-0.7-0.3-1,0-1.4,0.5c0.4,0.7,0.6,1.9,0.6,2.8c-0.8-1-2-1.4-3.5-1.5
		c-0.7,0-2.2,0.4-2.2,1.6c0,1.8,1.7,2.5,5.5,2.5c0.5,0,0.8,0.2,0.7,0.9c0,0.6,0,0.8,0.1,0.9c0,0,0.6-0.1,0.7-0.7
		c0.3-2.1,0.8-1.8,2.5-2c1.8,0,2-0.3,3.1,1.1c0.5,0.6,0.7,0.8,0.3,1.4c-1.3,2.1-2.6,5.9-2.6,7.4c0,1.7,0.1,4.2,1.9,4.2
		c1.3,0,3.5-2.9,4.4-6.1c0.6-2.3,0.6-6.9,0.4-8.8c0-0.1,0-0.2,0-0.2c0.3-1.2,2.3-2.8,3.2-2.8c-0.2,1.1-0.2,2-0.1,2.8
		c0.3,2.7,1.7,3.8,3.9,3.8c2.6,0,4-1.6,4.3-3.8c0.1-0.4,0.1-0.7,0.1-1.1c0-0.4,0-0.8-0.1-1.2c0.9-0.1,1.6-0.4,2-0.6
		c0.5-0.5,0.7-0.4,0.7,0.7c0,0,0,1.1,0,2.2c0,1,0,1.9,0,2.3c0,0.7,0,1.5,1,1.5c0.7,0,1.6-2,2.4-3.8c0.5-1.2,1-2.4,1.2-2.9
		c0.6-1.1,1.1-1,1.1-0.1c0,0,0,1.5,0,3c0,0.8,0,1.5,0,2c0,1.2,0.6,1.8,1.5,1.8c1,0,2.1-1.9,3.1-3.8c0.6-1.1,1.2-2.3,1.6-3
		c0.6-1,0.8-1,0.8,0c0,0,0,1.6,0,3c0,0.9,0,1.7,0,2c0,0.8,0.3,1.8,1,1.8c0.8,0,2-1.9,2.9-3.8h0c0-0.1,0.8-1.7,1.3-2.9
		c0.6-1.6,1-1.1,1,0.2l0,2.7l0,1.7c0,1.3,0.6,2.1,1.2,2.1c1.6,0,2.6-1.9,3.5-3.8c0.5-1,1-2,1.6-2.8c0.3,0.3,0.3,0.5,0.7,1.7
		c0.2,0.7-0.9,1.2-0.9,2.9c0,1.5,0.7,1.8,1.4,1.8c0.7,0,2.1-1,2.1-3.2c0-1.5-0.4-1.2-0.4-2.2c0.4-0.8,2.6-2.7,3.9-2.8
		c-0.7,0.7-1.2,2.3-1.2,3.4c0,0.4,0,0.8,0.1,1.1c0.5,2.2,2.2,3.8,4.4,3.8c2.4,0,3.8-1.9,4.1-3.7c0,0,0,0,0,0
		c0.2-1.1,0.3-2.1,0.1-3.5c0.5-0.1,1.2-0.6,1.5-0.9c0.9-0.9,1.2,0,1.2,1.4v3v1.8c0,1.4,0.3,2,1.1,2c0.9,0,1.4-1.6,2.4-3.8
		c0.4-1,0.9-2.1,1.6-3.2c0.5-1.1,0.8-1,0.8,0v3.3v0.5c0,2.3,0.6,3.2,1.6,3.2c1.1,0,2.2-1.2,2.9-2.7c0.2-0.5,0.3-0.8,0.4-1.1
		C163.5,17.1,163.2,17.1,163.1,17.3L163.1,17.3z M148.3,13.7c-1.7,0-1.8-1-1.2-1C148.3,12.7,148.8,13.7,148.3,13.7L148.3,13.7z
		 M84.6,18.7c-1.5,0-3-0.7-3-1.5c0-0.8,0.4-1,1.2-0.8C84.9,17.5,84.6,18,84.6,18.7L84.6,18.7z M90.9,11.7c0-4.6,1.8-7.6,4.9-8.9
		c-2.2,5-2.1,12.1-1.3,15.3c-0.4,0.8-0.7,2.2-1.5,1.2C91.3,17.1,90.9,11.9,90.9,11.7L90.9,11.7z M94.6,28.1
		c-0.4,1.2-1.3,2.9-2.2,2.9c-1,0-1.2-2.3-1.2-2.3c0.1-2.6,1.6-6.7,2.8-8c0.7-0.6,0.9-0.4,0.9,0.5C95,22.5,95.1,26.5,94.6,28.1
		L94.6,28.1z M105.1,12.9c0.4-0.2,0.9,0.4,1.2,1.2C104.5,13.9,104.4,13.2,105.1,12.9L105.1,12.9z M113.8,3.3c0.7,0,1,4.1-1.2,7
		c-0.2-0.7-0.2-2.1-0.2-2.8C112.3,7.5,112.2,3.3,113.8,3.3L113.8,3.3z M136.9,20c-0.5,0-0.9-0.4,0-1.8C137.3,17.6,137.5,20,136.9,20
		L136.9,20z"/>
	<path class="st1" d="M112.3,7.6c0,0,0,0,0-0.2C112.3,7,112.3,7.2,112.3,7.6L112.3,7.6z"/>
</g>
</svg>
